<svg width="1248" height="240" viewBox="0 0 1248 240" fill="none" xmlns="http://www.w3.org/2000/svg">
<path fill-rule="evenodd" clip-rule="evenodd" d="M174.677 113.999L174.534 113.708C170.786 106.056 167.034 98.3947 162.958 90.9504C160.44 86.351 156.883 82.5496 153.332 78.7541L153.331 78.7532L153.33 78.7528C152.189 77.5324 151.047 76.3126 149.941 75.0671C148.786 73.7668 147.386 72.5562 145.982 71.3425L145.981 71.3422C141.774 67.7061 137.534 64.0416 139.77 57.8525L139.772 57.8474C144.841 43.8197 136.722 15.6389 132.076 5.80776C129.066 -0.562012 124.997 -2.1123 121.683 3.27054C105.072 30.2522 103.599 35.3185 102.582 38.817C102.531 38.9919 102.268 40.0231 102.268 40.0231C102.268 40.0231 101.82 39.4244 97.0638 38.7556C96.0001 38.606 94.0626 34.3477 92.1514 30.1472C90.9233 27.4481 89.7061 24.7729 88.7385 23.227C85.702 18.3734 84.0513 13.5203 82.4123 8.70147L82.4121 8.70093C81.8422 7.02533 81.2737 5.35386 80.6488 3.68793C77.3203 -5.20158 69.5225 7.52562 67.975 10.7578C65.0081 16.9651 63.6828 23.9517 63.479 30.6967C63.4171 32.7148 63.4996 34.7381 63.5821 36.7609C63.6688 38.8857 63.7554 41.0102 63.6746 43.1278C63.6646 43.3856 63.6576 43.6407 63.6508 43.893L63.6508 43.8941C63.5796 46.5175 63.5162 48.851 60.0215 50.9749C52.9877 55.2475 51.6553 57.393 49.2117 62.563C48.379 64.3241 46.7844 65.5115 43.6659 66.0121C33.0086 67.7212 25.8365 70.2224 19.3368 72.4891C15.2294 73.9215 11.3904 75.2603 7.11011 76.2463C-1.20697 78.1636 -0.896652 82.5081 1.39334 90.7181C1.75706 92.0228 2.0638 93.1994 2.34457 94.2763C3.96199 100.48 4.71775 103.379 10.541 108.439C19.8355 116.515 32.2555 116.918 39.5 117.154C41.4746 117.218 43.0647 117.27 44.1022 117.461C47.4327 118.074 49.5838 119.59 52.0403 121.322C54.2685 122.893 62.2224 125.684 62.2224 125.684C67.2028 127.893 72.9349 130.816 70.7423 136.508C64.0653 153.841 61.5702 169.936 63.5894 185.766C79.6017 200.541 113.6 194.227 141.733 170.618C162.18 153.461 174.169 131.666 174.677 113.999ZM180.283 112.78L180.244 114.156C179.675 133.938 166.509 157.098 145.311 174.886C130.627 187.209 114.243 195.172 99.1581 198.059C96.0084 198.662 92.8745 199.048 89.7979 199.199C90.8099 201.606 92.1541 203.836 93.8438 205.85C108.713 223.571 144.707 217.846 174.241 193.063C203.774 168.28 215.662 133.824 200.793 116.103C195.267 109.517 186.822 106.169 176.876 105.835C177.759 107.627 178.635 109.415 179.507 111.196L179.508 111.197L179.508 111.198L179.535 111.253L180.283 112.78ZM209.431 153.754C204.244 168.79 193.224 184.408 177.815 197.338C162.406 210.269 145.112 218.41 129.405 220.908C126.935 221.301 124.478 221.556 122.055 221.664C123.109 224.606 124.63 227.308 126.641 229.703C141.509 247.424 177.504 241.7 207.037 216.917C236.57 192.134 248.458 157.678 233.59 139.957C228.582 133.988 221.178 130.679 212.431 129.862C213.401 137.443 212.221 145.666 209.431 153.754ZM1201.04 71.4644H1190.38V94.1758H1180.2V36.8918H1199.15C1203.61 36.8918 1207.47 37.5657 1210.76 38.9135C1214.04 40.2614 1216.58 42.2607 1218.38 44.9115C1220.18 47.5623 1221.08 50.8196 1221.08 54.6835C1221.08 57.1097 1220.49 59.2438 1219.32 61.0858C1218.2 62.9279 1216.54 64.5229 1214.33 65.8707C1214.27 65.9106 1214.2 65.9503 1214.13 65.9898C1214.08 66.0184 1214.04 66.0469 1213.99 66.0753C1215.18 66.7578 1216.17 67.5882 1216.96 68.5665C1219.57 71.7564 1220.88 75.8224 1220.88 80.7646V84.5386C1220.88 86.201 1220.94 87.7959 1221.08 89.3235C1221.26 90.8061 1221.57 92.0641 1222.02 93.0975V94.1758H1211.57C1211.12 93.0077 1210.85 91.3453 1210.76 89.1887C1210.71 87.0321 1210.69 85.4596 1210.69 84.4712V80.832C1210.69 77.6421 1209.95 75.2833 1208.46 73.7557C1207.02 72.2281 1204.55 71.4644 1201.04 71.4644ZM1190.38 62.4337V45.855H1199.15C1202.08 45.855 1204.39 46.1471 1206.1 46.7311C1207.86 47.2703 1209.09 48.1689 1209.81 49.4269C1210.58 50.6849 1210.96 52.4146 1210.96 54.6161C1210.96 56.3234 1210.4 57.7611 1209.27 58.9293C1208.19 60.0974 1206.73 60.9735 1204.89 61.5576C1203.09 62.1417 1201.11 62.4337 1198.95 62.4337H1190.38ZM1163.47 82.9212C1161.44 77.7993 1160.43 72.2731 1160.43 66.3425C1160.43 60.4119 1161.44 54.9081 1163.47 49.8312C1165.54 44.7093 1168.39 40.2614 1172.03 36.4874C1175.68 32.6685 1179.88 29.7032 1184.65 27.5915C1189.46 25.4799 1194.61 24.4241 1200.1 24.4241C1205.58 24.4241 1210.71 25.4799 1215.48 27.5915C1220.25 29.7032 1224.45 32.6685 1228.09 36.4874C1231.74 40.2614 1234.57 44.7093 1236.59 49.8312C1238.66 54.9081 1239.7 60.4119 1239.7 66.3425C1239.7 72.2731 1238.66 77.7993 1236.59 82.9212C1234.57 87.9981 1231.74 92.446 1228.09 96.265C1224.45 100.084 1220.25 103.072 1215.48 105.228C1210.71 107.34 1205.58 108.396 1200.1 108.396C1194.61 108.396 1189.46 107.34 1184.65 105.228C1179.88 103.072 1175.68 100.084 1172.03 96.265C1168.39 92.446 1165.54 87.9981 1163.47 82.9212ZM1155.91 46.4616C1153.44 52.5719 1152.2 59.1988 1152.2 66.3425C1152.2 73.4862 1153.44 80.1131 1155.91 86.2234C1158.38 92.3337 1161.82 97.6802 1166.23 102.263C1170.64 106.846 1175.72 110.418 1181.48 112.978C1187.28 115.539 1193.49 116.82 1200.1 116.82C1206.71 116.82 1212.89 115.539 1218.65 112.978C1224.45 110.418 1229.53 106.846 1233.9 102.263C1238.3 97.6802 1241.74 92.3337 1244.22 86.2234C1246.74 80.1131 1248 73.4862 1248 66.3425C1248 59.1988 1246.74 52.5719 1244.22 46.4616C1241.74 40.3513 1238.3 35.0272 1233.9 30.4894C1229.53 25.9067 1224.45 22.3573 1218.65 19.8413C1212.89 17.2804 1206.71 15.9999 1200.1 15.9999C1193.49 15.9999 1187.28 17.2804 1181.48 19.8413C1175.72 22.3573 1170.64 25.9067 1166.23 30.4894C1161.82 35.0272 1158.38 40.3513 1155.91 46.4616ZM1118.67 70.6174H1089.32L1088.03 82.1208C1084.96 78.2707 1081.3 75.185 1077.06 72.8638C1071.59 69.8685 1064.81 68.3709 1056.71 68.3709C1049.07 68.3709 1042.21 69.8685 1036.14 72.8638C1030.07 75.859 1024.89 80.0898 1020.62 85.5561C1016.42 91.0225 1013.16 97.5745 1010.84 105.212C1008.59 112.775 1007.47 121.2 1007.47 130.485V132.844C1007.47 141.68 1008.59 149.842 1010.84 157.33C1013.16 164.818 1016.46 171.332 1020.73 176.874C1025.01 182.415 1030.14 186.72 1036.14 189.791C1042.21 192.861 1048.99 194.396 1056.49 194.396C1063.98 194.396 1070.43 192.898 1075.83 189.903C1079.73 187.765 1083.18 185.016 1086.17 181.656V188.33C1086.17 194.096 1085.08 199.001 1082.91 203.045C1080.74 207.163 1077.63 210.271 1073.58 212.367C1069.53 214.539 1064.58 215.625 1058.74 215.625C1052.74 215.625 1047.27 214.389 1042.32 211.918C1037.37 209.522 1033.03 206.152 1029.28 201.809L1015 220.904C1018.45 225.247 1022.72 228.841 1027.82 231.687C1032.99 234.532 1038.39 236.629 1044.01 237.977C1049.7 239.324 1055.1 239.998 1060.2 239.998C1071.82 239.998 1082.01 237.977 1090.78 233.933C1099.55 229.964 1106.37 224.086 1111.24 216.299C1116.19 208.586 1118.67 199.188 1118.67 188.106V70.6174ZM1086.17 105.242V157.681C1084.4 160.735 1082.08 163.239 1079.2 165.192C1075.45 167.663 1070.62 168.899 1064.7 168.899C1060.42 168.899 1056.71 168 1053.57 166.203C1050.49 164.331 1047.91 161.748 1045.81 158.453C1043.78 155.083 1042.28 151.227 1041.31 146.884C1040.33 142.541 1039.85 137.861 1039.85 132.844V130.485C1039.85 125.318 1040.37 120.526 1041.42 116.108C1042.47 111.615 1044.01 107.721 1046.03 104.426C1048.13 101.131 1050.72 98.548 1053.79 96.676C1056.94 94.7291 1060.65 93.7556 1064.92 93.7556C1069.34 93.7556 1073.17 94.5044 1076.39 96.002C1079.61 97.4997 1082.24 99.5963 1084.26 102.292C1084.95 103.21 1085.59 104.193 1086.17 105.242ZM886.365 132.619V130.26C886.365 121.349 887.639 113.15 890.188 105.662C892.736 98.0987 896.447 91.5466 901.319 86.0054C906.191 80.4642 912.188 76.1586 919.309 73.0884C926.43 69.9434 934.6 68.3709 943.82 68.3709C953.04 68.3709 961.247 69.9434 968.443 73.0884C975.639 76.1586 981.673 80.4642 986.546 86.0054C991.493 91.5466 995.241 98.0987 997.789 105.662C1000.34 113.15 1001.61 121.349 1001.61 130.26V132.619C1001.61 141.455 1000.34 149.654 997.789 157.217C995.241 164.705 991.493 171.258 986.546 176.874C981.673 182.415 975.677 186.721 968.556 189.791C961.435 192.861 953.265 194.396 944.045 194.396C934.825 194.396 926.617 192.861 919.421 189.791C912.3 186.721 906.266 182.415 901.319 176.874C896.447 171.258 892.736 164.705 890.188 157.217C887.639 149.654 886.365 141.455 886.365 132.619ZM918.746 130.26V132.619C918.746 137.711 919.196 142.466 920.096 146.884C920.995 151.302 922.419 155.196 924.368 158.565C926.392 161.86 929.016 164.443 932.239 166.315C935.462 168.187 939.397 169.123 944.045 169.123C948.542 169.123 952.402 168.187 955.626 166.315C958.849 164.443 961.435 161.86 963.384 158.565C965.333 155.196 966.757 151.302 967.656 146.884C968.631 142.466 969.118 137.711 969.118 132.619V130.26C969.118 125.318 968.631 120.675 967.656 116.332C966.757 111.914 965.295 108.02 963.271 104.651C961.322 101.206 958.736 98.5106 955.513 96.5637C952.29 94.6168 948.392 93.6433 943.82 93.6433C939.247 93.6433 935.35 94.6168 932.126 96.5637C928.978 98.5106 926.392 101.206 924.368 104.651C922.419 108.02 920.995 111.914 920.096 116.332C919.196 120.675 918.746 125.318 918.746 130.26ZM844.516 179.191C841.041 183.692 836.925 187.263 832.168 189.903C826.771 192.898 820.475 194.395 813.279 194.395C805.708 194.395 798.962 192.86 793.04 189.79C787.194 186.72 782.246 182.414 778.199 176.873C774.226 171.332 771.19 164.817 769.091 157.329C766.993 149.841 765.943 141.679 765.943 132.843V130.484C765.943 121.199 766.993 112.775 769.091 105.212C771.19 97.5742 774.263 91.0221 778.311 85.5558C782.359 80.0895 787.344 75.8587 793.265 72.8634C799.187 69.8682 805.933 68.3706 813.504 68.3706C820.625 68.3706 826.846 69.8682 832.168 72.8634C836.186 75.093 839.746 78.0279 842.85 81.6682V19.623H875.456V192.149H846.11L844.516 179.191ZM842.85 106.874C842.05 105.199 841.113 103.672 840.039 102.292C838.015 99.596 835.466 97.4993 832.393 96.0017C829.395 94.5041 825.834 93.7553 821.712 93.7553C817.514 93.7553 813.916 94.7287 810.918 96.6756C807.919 98.5477 805.483 101.131 803.609 104.426C801.81 107.721 800.461 111.614 799.562 116.107C798.737 120.525 798.325 125.318 798.325 130.484V132.843C798.325 137.86 798.7 142.54 799.449 146.883C800.274 151.227 801.586 155.083 803.385 158.453C805.258 161.747 807.657 164.331 810.58 166.203C813.579 168 817.214 168.898 821.487 168.898C827.034 168.898 831.606 167.663 835.204 165.192C838.457 162.89 841.006 159.822 842.85 155.99V106.874ZM711.844 194.396C702.399 194.396 693.929 192.898 686.433 189.903C678.937 186.833 672.566 182.602 667.319 177.211C662.147 171.819 658.174 165.567 655.4 158.453C652.627 151.264 651.24 143.626 651.24 135.539V131.046C651.24 121.836 652.552 113.412 655.176 105.774C657.799 98.1362 661.547 91.5092 666.419 85.8931C671.366 80.277 677.363 75.9714 684.409 72.9761C691.455 69.906 699.401 68.3709 708.246 68.3709C716.866 68.3709 724.511 69.7937 731.183 72.6392C737.854 75.4846 743.438 79.5282 747.936 84.7699C752.508 90.0116 755.956 96.3016 758.28 103.64C760.604 110.903 761.765 118.991 761.765 127.901V141.38H684.08C684.407 144.055 684.966 146.601 685.758 149.018C687.182 153.136 689.169 156.693 691.717 159.688C694.341 162.684 697.489 165.005 701.162 166.652C704.91 168.3 709.145 169.123 713.867 169.123C719.714 169.123 725.149 168 730.171 165.754C735.268 163.432 739.653 159.951 743.326 155.308L759.067 172.381C756.518 176.05 753.033 179.569 748.61 182.939C744.263 186.309 739.016 189.079 732.869 191.251C726.723 193.347 719.714 194.396 711.844 194.396ZM684.473 119.814H729.946V117.343C729.946 112.85 729.121 108.844 727.472 105.325C725.898 101.73 723.499 98.885 720.276 96.7883C717.053 94.6916 712.93 93.6433 707.908 93.6433C703.636 93.6433 699.963 94.5793 696.889 96.4513C693.816 98.3234 691.305 100.944 689.356 104.314C687.482 107.684 686.058 111.652 685.084 116.22C684.85 117.388 684.646 118.586 684.473 119.814ZM605.811 166.877C602.738 168.375 599.215 169.123 595.242 169.123C590.445 169.123 586.547 168.15 583.549 166.203C580.55 164.256 578.189 161.598 576.465 158.228C574.816 154.859 573.692 151.002 573.092 146.659C572.492 142.316 572.193 137.786 572.193 133.068V129.811C572.193 125.093 572.492 120.6 573.092 116.332C573.767 111.989 574.928 108.133 576.578 104.763C578.227 101.319 580.55 98.6229 583.549 96.676C586.547 94.6542 590.407 93.6433 595.13 93.6433C599.552 93.6433 603.263 94.6542 606.261 96.676C609.334 98.6229 611.658 101.244 613.232 104.538C614.881 107.833 615.743 111.502 615.818 115.546H646.288C646.213 105.886 644.002 97.5371 639.654 90.4983C635.382 83.3846 629.46 77.9183 621.89 74.0993C614.394 70.2804 605.661 68.3709 595.692 68.3709C586.322 68.3709 578.152 69.9434 571.181 73.0884C564.21 76.2334 558.4 80.614 553.753 86.2301C549.106 91.7713 545.62 98.2859 543.296 105.774C540.973 113.187 539.811 121.2 539.811 129.811V133.068C539.811 141.605 540.973 149.617 543.296 157.105C545.62 164.518 549.106 171.033 553.753 176.649C558.4 182.19 564.21 186.533 571.181 189.678C578.227 192.823 586.472 194.396 595.917 194.396C605.286 194.396 613.757 192.524 621.327 188.78C628.898 184.961 634.932 179.757 639.43 173.167C643.927 166.503 646.213 158.902 646.288 150.366H615.818C615.743 154.185 614.806 157.517 613.007 160.362C611.283 163.133 608.884 165.305 605.811 166.877ZM527.423 70.6194V192.151H494.928V70.6194H527.423ZM492.905 38.9448C492.905 34.2272 494.554 30.3334 497.852 27.2633C501.15 24.1932 505.573 22.6581 511.119 22.6581C516.591 22.6581 520.976 24.1932 524.274 27.2633C527.648 30.3334 529.334 34.2272 529.334 38.9448C529.334 43.6623 527.648 47.5561 524.274 50.6262C520.976 53.6963 516.591 55.2314 511.119 55.2314C505.573 55.2314 501.15 53.6963 497.852 50.6262C494.554 47.5561 492.905 43.6623 492.905 38.9448ZM475.696 192.149V19.623H443.202V192.149H475.696ZM396.084 149.355C396.084 146.435 395.635 143.814 394.735 141.493C393.911 139.097 392.336 136.925 390.013 134.978C387.689 132.956 384.428 130.972 380.231 129.025C376.033 127.078 370.599 125.056 363.927 122.96C356.507 120.564 349.461 117.868 342.789 114.873C336.193 111.877 330.346 108.395 325.249 104.427C320.227 100.383 316.254 95.7031 313.331 90.3865C310.483 85.07 309.058 78.8923 309.058 71.8535C309.058 65.0393 310.558 58.8616 313.556 53.3204C316.554 47.7043 320.752 42.9119 326.149 38.9432C331.546 34.8996 337.917 31.7921 345.263 29.6205C352.684 27.449 360.817 26.3632 369.662 26.3632C381.73 26.3632 392.261 28.5347 401.256 32.8778C410.251 37.221 417.222 43.174 422.17 50.737C427.192 58.3 429.703 66.9487 429.703 76.6833H396.197C396.197 71.8909 395.185 67.6976 393.161 64.1033C391.212 60.4341 388.214 57.5512 384.166 55.4545C380.193 53.3578 375.171 52.3095 369.1 52.3095C363.253 52.3095 358.381 53.2081 354.483 55.0052C350.585 56.7275 347.662 59.0862 345.713 62.0815C343.764 65.0018 342.789 68.2966 342.789 71.9658C342.789 74.7364 343.464 77.2449 344.813 79.4913C346.237 81.7378 348.336 83.8344 351.11 85.7813C353.883 87.7282 357.294 89.5628 361.341 91.2851C365.389 93.0074 370.074 94.6922 375.396 96.3396C384.316 99.0353 392.149 102.068 398.895 105.438C405.716 108.807 411.413 112.589 415.986 116.782C420.558 120.975 424.006 125.73 426.33 131.047C428.653 136.364 429.815 142.391 429.815 149.131C429.815 156.244 428.429 162.609 425.655 168.225C422.882 173.841 418.871 178.596 413.624 182.49C408.377 186.384 402.118 189.342 394.848 191.364C387.577 193.385 379.444 194.396 370.449 194.396C362.353 194.396 354.37 193.348 346.5 191.251C338.629 189.08 331.471 185.822 325.024 181.479C318.653 177.136 313.556 171.595 309.733 164.856C305.91 158.116 303.999 150.142 303.999 140.931H337.842C337.842 146.023 338.629 150.329 340.203 153.848C341.777 157.368 343.989 160.213 346.837 162.385C349.76 164.556 353.209 166.129 357.181 167.102C361.229 168.076 365.651 168.562 370.449 168.562C376.296 168.562 381.093 167.739 384.841 166.091C388.664 164.444 391.474 162.16 393.273 159.24C395.147 156.319 396.084 153.025 396.084 149.355Z" fill="white"/>
</svg>
