<svg width="64" height="53" viewBox="0 0 64 53" fill="none" xmlns="http://www.w3.org/2000/svg">
<rect width="64" height="53" fill="white"/>
<mask id="path-1-inside-1_401_24279" fill="white">
<path fill-rule="evenodd" clip-rule="evenodd" d="M48.6035 40.5C50.7465 37.3688 52 33.5808 52 29.5C52 18.7304 43.2696 10 32.5 10C21.7304 10 13 18.7304 13 29.5C13 33.5808 14.2535 37.3688 16.3965 40.5H48.6035Z"/>
</mask>
<path fill-rule="evenodd" clip-rule="evenodd" d="M48.6035 40.5C50.7465 37.3688 52 33.5808 52 29.5C52 18.7304 43.2696 10 32.5 10C21.7304 10 13 18.7304 13 29.5C13 33.5808 14.2535 37.3688 16.3965 40.5H48.6035Z" fill="#D9D9D9"/>
<path d="M48.6035 40.5V41.5H49.1309L49.4287 41.0648L48.6035 40.5ZM16.3965 40.5L15.5713 41.0648L15.8691 41.5H16.3965V40.5ZM51 29.5C51 33.3729 49.811 36.9651 47.7783 39.9352L49.4287 41.0648C51.6819 37.7725 53 33.7887 53 29.5H51ZM32.5 11C42.7173 11 51 19.2827 51 29.5H53C53 18.1782 43.8218 9 32.5 9V11ZM14 29.5C14 19.2827 22.2827 11 32.5 11V9C21.1782 9 12 18.1782 12 29.5H14ZM17.2217 39.9352C15.189 36.9651 14 33.3729 14 29.5H12C12 33.7887 13.3181 37.7725 15.5713 41.0648L17.2217 39.9352ZM16.3965 41.5H48.6035V39.5H16.3965V41.5Z" fill="black" mask="url(#path-1-inside-1_401_24279)"/>
<path d="M32 10.5L32 14.5" stroke="black"/>
<path d="M51 30.5L47 30.5" stroke="black"/>
<path d="M14 30.5H18" stroke="black"/>
<circle cx="32.5" cy="30" r="2.5" fill="black"/>
<path d="M32 30.5L46 18.5" stroke="black"/>
</svg>
