<svg width="64" height="53" viewBox="0 0 64 53" fill="none" xmlns="http://www.w3.org/2000/svg">
<g clip-path="url(#clip0_401_24216)">
<rect width="64" height="53" fill="white"/>
<path d="M29.8523 42.0909V11.1818H31.8324V42.0909H29.8523ZM36.517 20.4545C36.3722 19.2311 35.7846 18.2812 34.7543 17.6051C33.724 16.929 32.4602 16.5909 30.9631 16.5909C29.8684 16.5909 28.9105 16.768 28.0895 17.1222C27.2765 17.4763 26.6406 17.9633 26.1818 18.5831C25.7311 19.2029 25.5057 19.9072 25.5057 20.696C25.5057 21.3561 25.6626 21.9235 25.9766 22.3984C26.2985 22.8653 26.709 23.2557 27.2081 23.5696C27.7071 23.8755 28.2304 24.129 28.7777 24.3303C29.325 24.5234 29.8281 24.6804 30.2869 24.8011L32.7983 25.4773C33.4422 25.6463 34.1586 25.8797 34.9474 26.1776C35.7443 26.4754 36.505 26.8819 37.2294 27.397C37.9619 27.9041 38.5656 28.5561 39.0405 29.353C39.5154 30.1499 39.7528 31.1278 39.7528 32.2869C39.7528 33.6231 39.4027 34.8305 38.7024 35.9091C38.0102 36.9877 36.996 37.8449 35.6598 38.4808C34.3317 39.1167 32.7178 39.4347 30.8182 39.4347C29.0473 39.4347 27.514 39.1489 26.218 38.5774C24.9302 38.0059 23.916 37.209 23.1754 36.1868C22.4429 35.1645 22.0284 33.9773 21.9318 32.625H25.0227C25.1032 33.5587 25.4171 34.3314 25.9645 34.9432C26.5199 35.5469 27.2202 35.9976 28.0653 36.2955C28.9186 36.5852 29.8362 36.7301 30.8182 36.7301C31.9612 36.7301 32.9875 36.545 33.897 36.1747C34.8066 35.7964 35.527 35.2732 36.0582 34.6051C36.5895 33.929 36.8551 33.1402 36.8551 32.2386C36.8551 31.4176 36.6257 30.7495 36.1669 30.2344C35.7081 29.7192 35.1044 29.3007 34.3558 28.9787C33.6072 28.6567 32.7983 28.375 31.929 28.1335L28.8864 27.2642C26.9545 26.7088 25.4252 25.916 24.2983 24.8857C23.1714 23.8553 22.608 22.5071 22.608 20.8409C22.608 19.4564 22.9822 18.2491 23.7308 17.2188C24.4875 16.1804 25.5017 15.3755 26.7734 14.804C28.0533 14.2244 29.482 13.9347 31.0597 13.9347C32.6534 13.9347 34.0701 14.2204 35.3097 14.7919C36.5492 15.3553 37.5313 16.1281 38.2557 17.1101C38.9882 18.0921 39.3745 19.2069 39.4148 20.4545H36.517Z" fill="black"/>
</g>
<defs>
<clipPath id="clip0_401_24216">
<rect width="64" height="53" fill="white"/>
</clipPath>
</defs>
</svg>
