<svg width="78" height="78" viewBox="0 0 78 78" fill="none" xmlns="http://www.w3.org/2000/svg">
<rect width="78" height="78" fill="white"/>
<path d="M25 35L39 48.5L52 35" stroke="black" stroke-width="2" stroke-linecap="round" stroke-dasharray="4 4"/>
<path d="M37.5858 14.5858C38.3668 13.8047 39.6332 13.8047 40.4142 14.5858L53.1421 27.3137C53.9232 28.0948 53.9232 29.3611 53.1421 30.1421C52.3611 30.9232 51.0948 30.9232 50.3137 30.1421L39 18.8284L27.6863 30.1421C26.9052 30.9232 25.6389 30.9232 24.8579 30.1421C24.0768 29.3611 24.0768 28.0948 24.8579 27.3137L37.5858 14.5858ZM37 44V16H41V44H37Z" fill="black"/>
<line x1="13" y1="49.5" x2="69" y2="49.5" stroke="black"/>
</svg>
