<svg width="78" height="78" viewBox="0 0 78 78" fill="none" xmlns="http://www.w3.org/2000/svg">
<rect width="78" height="78" fill="white"/>
<path d="M25 28.5L39 15L52 28.5" stroke="black" stroke-width="2" stroke-linecap="round" stroke-dasharray="4 4"/>
<path d="M37.5858 48.4142C38.3668 49.1953 39.6332 49.1953 40.4142 48.4142L53.1421 35.6863C53.9232 34.9052 53.9232 33.6389 53.1421 32.8579C52.3611 32.0768 51.0948 32.0768 50.3137 32.8579L39 44.1716L27.6863 32.8579C26.9052 32.0768 25.6389 32.0768 24.8579 32.8579C24.0768 33.6389 24.0768 34.9052 24.8579 35.6863L37.5858 48.4142ZM37 19V47H41V19H37Z" fill="black"/>
<line x1="13" y1="49.5" x2="69" y2="49.5" stroke="black"/>
</svg>
