<svg width="480" height="480" viewBox="0 0 480 480" fill="none" xmlns="http://www.w3.org/2000/svg">
<path fill-rule="evenodd" clip-rule="evenodd" d="M349.069 227.416L349.354 227.999C348.339 263.334 324.361 306.922 283.468 341.238C227.2 388.455 159.204 401.083 127.179 371.533C123.141 339.873 128.131 307.683 141.485 273.017C145.87 261.633 134.406 255.787 124.445 251.368C124.445 251.368 108.537 245.786 104.081 242.644C99.1679 239.181 94.8656 236.148 88.2046 234.922C86.1295 234.54 82.9494 234.436 79.0003 234.308C64.5112 233.837 39.6712 233.03 21.082 216.878C9.43553 206.758 7.924 200.961 4.68915 188.553C4.1276 186.399 3.51412 184.046 2.78668 181.437C-1.79331 165.017 -2.41394 156.328 14.2203 152.493C22.7808 150.521 30.4586 147.843 38.6733 144.979L38.6737 144.978L38.6739 144.978C51.6734 140.445 66.0176 135.443 87.332 132.025C93.5691 131.023 96.7583 128.648 98.4235 125.126C103.311 114.786 105.976 110.495 120.043 101.95C127.033 97.7022 127.159 93.0351 127.302 87.7883L127.302 87.7862C127.316 87.2815 127.329 86.7715 127.35 86.2559C127.511 82.0206 127.338 77.7719 127.165 73.5223L127.165 73.522L127.164 73.5216C126.999 69.476 126.834 65.4297 126.958 61.3936C127.366 47.9036 130.016 33.9303 135.95 21.5156C139.045 15.0513 154.641 -10.4032 161.298 7.37587C162.548 10.7077 163.685 14.0507 164.825 17.4019L164.825 17.403L164.825 17.4031C168.103 27.0408 171.404 36.7469 177.477 46.454C179.413 49.5459 181.847 54.8964 184.303 60.2946C188.126 68.6956 192.001 77.2122 194.128 77.5113C203.64 78.849 204.537 80.0464 204.537 80.0464C204.537 80.0464 205.062 77.9839 205.164 77.6341C207.198 70.6372 210.144 60.5045 243.367 6.5411C249.995 -4.22462 258.133 -1.12403 264.153 11.6155C273.444 31.278 289.683 87.6396 279.544 115.695L279.54 115.705C275.07 128.084 283.549 135.413 291.963 142.685L291.963 142.685C294.772 145.113 297.574 147.534 299.883 150.135C302.096 152.627 304.38 155.067 306.664 157.509L306.664 157.509C313.767 165.1 320.88 172.703 325.917 181.901C334.069 196.79 341.573 212.112 349.069 227.416ZM360.49 228.314L360.569 225.562L359.073 222.507L359.019 222.397C357.274 218.834 355.522 215.256 353.755 211.671C373.646 212.34 390.534 219.035 401.586 232.207C431.324 267.65 407.548 336.562 348.482 386.128C289.415 435.694 217.426 447.143 187.688 411.701C184.309 407.673 181.62 403.213 179.596 398.399C185.75 398.099 192.019 397.325 198.319 396.12C228.489 390.346 261.257 374.419 290.625 349.774C333.021 314.198 359.353 267.878 360.49 228.314ZM355.63 394.678C386.448 368.818 408.488 337.58 418.863 307.508C424.444 291.334 426.804 274.887 424.863 259.726C442.357 261.359 457.166 267.977 467.182 279.915C496.92 315.357 473.144 384.269 414.078 433.835C355.011 483.401 283.021 494.85 253.284 459.408C249.264 454.617 246.221 449.213 244.112 443.329C248.958 443.113 253.872 442.603 258.81 441.817C290.225 436.821 324.813 420.539 355.63 394.678Z" fill="black"/>
</svg>
